<svg xmlns="http://www.w3.org/2000/svg" width="512" height="512" viewBox="0 0 512 512">
<g>
<path d="M 68.02,385.40 C51.96,381.08 40.08,367.64 36.98,350.27 C34.46,336.19 34.44,336.24 70.12,264.79 C87.65,229.68 102.00,199.86 102.00,198.53 C102.00,195.16 97.28,180.53 94.25,174.50 C83.38,152.86 69.41,145.50 56.02,154.37 C51.44,157.40 47.93,161.81 42.47,171.40 C38.23,178.86 36.68,179.95 33.54,177.65 C31.81,176.39 31.73,175.83 32.81,172.24 C34.43,166.82 42.78,154.26 47.51,150.12 C60.98,138.33 76.86,139.36 89.87,152.87 C95.42,158.63 102.78,171.18 106.51,181.25 C107.48,183.86 108.55,185.99 108.89,185.98 C109.22,185.97 114.08,176.59 119.67,165.15 C127.43,149.26 131.02,143.05 134.81,138.92 C152.26,119.91 180.69,119.42 198.24,137.81 C202.92,142.72 205.77,147.56 215.78,167.59 C222.35,180.74 228.05,192.52 228.44,193.76 C229.01,195.60 228.11,197.17 223.70,202.04 C217.49,208.91 209.47,224.14 205.56,236.50 C204.16,240.90 201.46,251.47 199.55,260.00 C192.56,291.24 188.79,304.45 187.06,303.83 C186.55,303.65 182.04,295.29 177.03,285.25 C172.03,275.21 167.61,267.00 167.21,267.00 C166.81,267.00 160.97,278.04 154.23,291.53 L 141.97,316.07 L 145.93,321.90 C162.95,346.96 185.10,338.33 198.25,301.50 C199.62,297.65 203.55,282.57 206.98,268.00 C215.68,230.96 220.79,218.41 231.95,206.64 C239.69,198.48 245.59,195.57 254.50,195.53 C260.76,195.50 262.22,195.90 268.37,199.30 C272.15,201.39 275.39,202.94 275.58,202.76 C275.76,202.57 282.70,188.86 290.99,172.29 C305.35,143.59 306.35,141.89 312.24,136.44 C319.49,129.72 325.72,126.59 335.16,124.90 C348.49,122.52 362.36,127.09 372.81,137.31 C377.06,141.47 379.78,145.80 386.52,159.11 L 394.92,175.73 L 392.56,183.61 C391.26,187.95 388.97,196.90 387.48,203.50 C384.70,215.78 379.69,237.34 377.95,244.50 C377.42,246.70 374.95,257.50 372.48,268.50 C367.74,289.53 363.44,304.00 361.94,304.00 C361.45,304.00 356.92,295.68 351.87,285.50 C346.82,275.32 342.41,267.00 342.08,267.00 C340.97,267.00 318.00,313.98 318.00,316.26 C318.00,319.46 326.30,329.60 331.76,333.06 C337.47,336.69 344.98,337.07 350.90,334.05 C356.70,331.09 363.54,322.76 368.51,312.62 C374.79,299.78 375.07,298.74 392.11,223.50 C402.61,177.18 407.29,165.13 419.75,152.40 C426.61,145.40 431.79,142.82 440.26,142.22 C446.34,141.78 447.64,142.04 453.43,144.89 C460.83,148.53 467.59,155.41 473.25,165.06 C477.43,172.19 478.03,176.38 475.07,177.96 C472.04,179.59 470.12,178.18 467.04,172.07 C460.31,158.75 450.95,150.68 442.10,150.59 C430.29,150.47 420.20,161.10 411.68,182.65 C405.23,198.96 402.53,190.88 438.82,263.77 C473.28,332.97 473.90,334.50 472.69,347.43 C471.94,355.48 468.95,363.27 464.23,369.48 C447.82,391.07 415.89,392.88 397.93,373.23 C394.36,369.32 390.17,362.18 382.42,346.80 L 371.82,325.73 L 366.03,332.14 C358.67,340.30 351.89,344.08 343.39,344.76 C337.67,345.22 336.32,344.94 330.58,342.11 C324.64,339.19 314.00,329.44 314.00,326.92 C314.00,323.34 310.66,328.70 301.62,346.77 C294.51,360.97 289.80,369.11 286.72,372.52 C272.79,387.93 249.94,391.36 232.14,380.71 C223.04,375.26 218.81,369.49 208.03,347.82 C202.60,336.89 197.96,327.40 197.72,326.73 C197.47,326.03 194.67,328.33 191.25,332.03 C187.94,335.62 182.81,339.90 179.86,341.53 C175.25,344.08 173.45,344.50 167.00,344.50 C160.55,344.50 158.75,344.08 154.12,341.52 C151.17,339.89 146.14,335.66 142.95,332.12 L 137.16,325.70 L 126.49,347.02 C117.34,365.29 115.01,369.15 110.12,374.04 C106.98,377.18 102.53,380.71 100.24,381.88 C90.47,386.86 78.39,388.18 68.02,385.40 M 263.41,228.05 C267.69,219.28 270.88,211.62 270.52,211.03 C270.15,210.44 267.53,208.62 264.68,206.99 C256.55,202.32 247.42,203.36 240.81,209.68 L 238.12,212.26 L 246.07,228.13 C250.44,236.86 254.38,244.00 254.83,244.00 C255.28,244.00 259.14,236.82 263.41,228.05 Z" fill="#1455BE"/>
</g>
</svg>
